<svg width="33" height="34" viewBox="0 0 34 35" fill="none" xmlns="http://www.w3.org/2000/svg">
<path d="M33.7708 16.25C33.7708 25.225 26.3125 32.5 17.1042 32.5C15.7283 32.5 14.3958 32.3383 13.1175 32.03C12.73 31.9367 12.325 31.9725 11.9683 32.1508L8.32083 33.975C7.37917 34.4458 6.27083 33.7608 6.27083 32.7075V29.3533C6.27083 28.8742 6.05667 28.4275 5.70333 28.1042C2.45833 25.1375 0.4375 20.925 0.4375 16.25C0.4375 7.275 7.89583 0 17.1042 0C26.3125 0 33.7708 7.275 33.7708 16.25Z" fill="url(#paint0_radial_790_8977)"/>
<path opacity="0.05" d="M26.2645 11.0781C25.9078 11.0781 25.562 11.1965 25.2645 11.4206L20.5195 14.9331C20.4086 15.0165 20.2861 15.0581 20.157 15.0581C20.032 15.0581 19.9145 15.019 19.8153 14.9448L16.5053 12.4531C15.832 11.9523 15.0386 11.6881 14.2078 11.6881C12.8945 11.6881 11.687 12.3473 10.9778 13.4515L9.96864 15.0273L6.5353 20.6065C6.20864 21.1181 6.18364 21.7498 6.47614 22.2848C6.77447 22.8298 7.3378 23.1681 7.94614 23.1681C8.3028 23.1681 8.64864 23.0498 8.94614 22.8256L13.6911 19.3131C13.802 19.2298 13.9245 19.1881 14.0536 19.1881C14.1786 19.1881 14.2961 19.2273 14.3953 19.3015L17.7053 21.7931C18.3795 22.2948 19.172 22.5581 20.0028 22.5581C21.3161 22.5581 22.5236 21.899 23.2328 20.7948L24.242 19.219L27.6753 13.6398C28.002 13.1281 28.027 12.4965 27.7345 11.9615C27.4361 11.4165 26.8728 11.0781 26.2645 11.0781Z" fill="black"/>
<path opacity="0.07" d="M26.2645 11.4941C25.9987 11.4941 25.7395 11.5833 25.5153 11.7525L20.7678 15.2675C20.5878 15.4033 20.3778 15.4741 20.1578 15.4741C19.942 15.4741 19.7378 15.4058 19.5662 15.2775L16.2553 12.785C15.6562 12.3391 14.9487 12.1041 14.2078 12.1041C13.037 12.1041 11.9612 12.6916 11.3287 13.6766L10.3203 15.2525L6.89118 20.8258C6.64368 21.2133 6.62451 21.6866 6.84284 22.085C7.06451 22.49 7.49868 22.7516 7.94701 22.7516C8.21284 22.7516 8.47201 22.6625 8.69618 22.4933L13.4437 18.9783C13.6237 18.8425 13.8337 18.7716 14.0537 18.7716C14.2695 18.7716 14.4737 18.84 14.6453 18.9683L17.9562 21.4608C18.5553 21.9066 19.2628 22.1416 20.0037 22.1416C21.1745 22.1416 22.2503 21.5541 22.8828 20.5691L23.8912 18.9933L27.3203 13.42C27.5678 13.0325 27.587 12.5591 27.3687 12.1608C27.147 11.7558 26.7137 11.4941 26.2645 11.4941Z" fill="black"/>
<path d="M25.766 12.0847L21.016 15.6014C20.5077 15.9847 19.816 15.9847 19.316 15.6097L16.0043 13.1172C14.6043 12.0756 12.621 12.4339 11.6793 13.9006L10.671 15.4756L7.246 21.0422C6.746 21.8256 7.70433 22.7172 8.446 22.1589L13.196 18.6422C13.7043 18.2589 14.396 18.2589 14.896 18.6339L18.2077 21.1264C19.6077 22.1681 21.591 21.8097 22.5327 20.3431L23.541 18.7681L26.966 13.2014C27.466 12.4181 26.5077 11.5264 25.766 12.0847Z" fill="white"/>
<defs>
<radialGradient id="paint0_radial_790_8977" cx="0" cy="0" r="1" gradientUnits="userSpaceOnUse" gradientTransform="translate(6.34333 32.4817) scale(39.6767 39.6767)">
<stop stop-color="#1292FF"/>
<stop offset="0.079" stop-color="#2982FF"/>
<stop offset="0.23" stop-color="#4E69FF"/>
<stop offset="0.351" stop-color="#6559FF"/>
<stop offset="0.428" stop-color="#6D53FF"/>
<stop offset="0.754" stop-color="#DF47AA"/>
<stop offset="0.946" stop-color="#FF6257"/>
</radialGradient>
</defs>
</svg>
