<svg width="50" height="50" viewBox="0 0 50 50" fill="none" xmlns="http://www.w3.org/2000/svg">
<g clip-path="url(#clip0_826_107328)">
<path fill-rule="evenodd" clip-rule="evenodd" d="M22.782 0.166016H27.199C33.2653 0.166016 36.8103 1.05701 39.9572 2.74421C43.1041 4.4314 45.5875 6.89585 47.2557 10.0428C48.9429 13.1897 49.8339 16.7347 49.8339 22.801V27.1991C49.8339 33.2654 48.9429 36.8104 47.2557 39.9573C45.5685 43.1042 43.1041 45.5877 39.9572 47.2559C36.8103 48.9431 33.2653 49.8341 27.199 49.8341H22.8009C16.7346 49.8341 13.1896 48.9431 10.0427 47.2559C6.89583 45.5687 4.41243 43.1042 2.7442 39.9573C1.057 36.8104 0.166016 33.2654 0.166016 27.1991V22.801C0.166016 16.7347 1.057 13.1897 2.7442 10.0428C4.43139 6.89585 6.89583 4.41245 10.0427 2.74421C13.1707 1.05701 16.7346 0.166016 22.782 0.166016Z" fill="#0068FF"/>
<path opacity="0.12" fill-rule="evenodd" clip-rule="evenodd" d="M49.8336 26.4727V27.1985C49.8336 33.2648 48.9427 36.8098 47.2555 39.9567C45.5683 43.1036 43.1038 45.587 39.9569 47.2553C36.81 48.9425 33.265 49.8335 27.1987 49.8335H22.8007C17.8369 49.8335 14.5612 49.2369 11.8104 48.0957L7.27539 43.4258L49.8336 26.4727Z" fill="#001A33"/>
<path fill-rule="evenodd" clip-rule="evenodd" d="M7.77851 43.5892C10.1014 43.846 13.0056 43.1836 15.0677 42.1825C24.022 47.1318 38.0192 46.8954 46.4918 41.4732C46.8204 40.9803 47.1274 40.4677 47.4123 39.9363C49.1057 36.7779 49.9999 33.22 49.9999 27.1316V22.7175C49.9999 16.629 49.1057 13.0711 47.4123 9.91273C45.738 6.75436 43.2456 4.28093 40.0872 2.58758C36.9288 0.894239 33.3709 0 27.2825 0H22.8494C17.6639 0 14.2977 0.652754 11.4694 1.89893C11.3148 2.03737 11.1631 2.17818 11.0146 2.32135C2.71685 10.3203 2.08609 27.6593 9.1223 37.0782C9.13015 37.0921 9.13884 37.1061 9.1484 37.1203C10.2329 38.7185 9.18645 41.5154 7.55019 43.1516C7.28382 43.399 7.37895 43.5512 7.77851 43.5892Z" fill="white"/>
<path d="M20.5627 17H10.8377V19.0853H17.5864L10.9324 27.3317C10.7239 27.635 10.5723 27.9194 10.5723 28.5639V29.0947H19.7475C20.2025 29.0947 20.5817 28.7156 20.5817 28.2606V27.1421H13.4917L19.7475 19.2938C19.8423 19.1801 20.0129 18.9716 20.0888 18.8768L20.1267 18.8199C20.4869 18.2891 20.5627 17.8341 20.5627 17.2844V17Z" fill="#0068FF"/>
<path d="M32.9416 29.0947H34.3255V17H32.2402V28.3933C32.2402 28.7725 32.5435 29.0947 32.9416 29.0947Z" fill="#0068FF"/>
<path d="M25.8135 19.6934C23.1974 19.6934 21.0742 21.8166 21.0742 24.4327C21.0742 27.0488 23.1974 29.172 25.8135 29.172C28.4296 29.172 30.5528 27.0488 30.5528 24.4327C30.5718 21.8166 28.4486 19.6934 25.8135 19.6934ZM25.8135 27.2194C24.278 27.2194 23.0268 25.9682 23.0268 24.4327C23.0268 22.8972 24.278 21.646 25.8135 21.646C27.349 21.646 28.6002 22.8972 28.6002 24.4327C28.6002 25.9682 27.368 27.2194 25.8135 27.2194Z" fill="#0068FF"/>
<path d="M40.4862 19.6152C37.8511 19.6152 35.709 21.7574 35.709 24.3924C35.709 27.0275 37.8511 29.1697 40.4862 29.1697C43.1212 29.1697 45.2634 27.0275 45.2634 24.3924C45.2634 21.7574 43.1212 19.6152 40.4862 19.6152ZM40.4862 27.2171C38.9317 27.2171 37.6805 25.9659 37.6805 24.4114C37.6805 22.8569 38.9317 21.6057 40.4862 21.6057C42.0407 21.6057 43.2919 22.8569 43.2919 24.4114C43.2919 25.9659 42.0407 27.2171 40.4862 27.2171Z" fill="#0068FF"/>
<path d="M29.4571 29.0944H30.5756V19.957H28.623V28.2793C28.623 28.7153 29.0021 29.0944 29.4571 29.0944Z" fill="#0068FF"/>
</g>
<defs>
<clipPath id="clip0_826_107328">
<rect width="50" height="50" fill="white"/>
</clipPath>
</defs>
</svg>